<svg width="64" height="40" viewBox="0 0 64 40" fill="none" xmlns="http://www.w3.org/2000/svg">
<g clip-path="url(#clip0_7027_13989)">
<path d="M59.9099 4.9193C59.9099 4.96593 59.9099 5.02423 59.8979 5.05921C59.8379 5.51395 59.8379 5.96869 59.8738 6.43509C59.8979 6.55169 59.9218 6.66829 60.0178 6.76157C60.1737 6.93646 60.4135 6.90149 60.5095 6.6916C60.5575 6.58667 60.5575 6.48172 60.5335 6.37679C60.4135 5.9337 60.3896 5.46731 60.3776 5.01257C60.3776 4.98925 60.3776 4.95427 60.3776 4.9193C60.5095 4.90763 60.6295 4.89597 60.7374 4.89597C60.8214 4.88431 60.8934 4.87265 60.9533 4.83767C61.1332 4.7444 61.1332 4.54618 60.9413 4.4529C60.8693 4.41791 60.7734 4.40625 60.6895 4.40625C60.3896 4.41791 60.0898 4.41791 59.7899 4.41791C59.682 4.41791 59.574 4.42958 59.4661 4.44123C59.4061 4.4529 59.3341 4.4529 59.2862 4.48788C59.2022 4.52285 59.1543 4.58115 59.1543 4.66277C59.1663 4.7444 59.2022 4.79103 59.2862 4.82601C59.3341 4.861 59.3941 4.87265 59.4541 4.87265C59.598 4.88431 59.754 4.90763 59.9099 4.9193ZM63.2081 5.45565C63.2081 5.46731 63.22 5.47897 63.22 5.47897C63.268 5.79379 63.316 6.09695 63.352 6.4001C63.364 6.50504 63.376 6.59832 63.448 6.67994C63.6038 6.87816 63.8438 6.85484 63.9516 6.64497C63.9996 6.54002 64.0116 6.43509 63.9877 6.31849C63.9157 5.96869 63.8797 5.61889 63.8077 5.28075C63.7597 5.07087 63.6998 4.87265 63.6399 4.6861C63.6038 4.5695 63.5199 4.48787 63.376 4.47621C63.2321 4.4529 63.1241 4.52285 63.0641 4.6278C62.9922 4.72107 62.9322 4.81435 62.8842 4.9193C62.8003 5.10585 62.7283 5.29241 62.6324 5.46731C62.6204 5.51395 62.6084 5.54893 62.5844 5.5839C62.5724 5.56059 62.5605 5.54893 62.5605 5.54893C62.4045 5.25743 62.2606 4.96593 62.1047 4.6861C62.0806 4.66277 62.0687 4.63945 62.0567 4.61613C61.9847 4.5112 61.9008 4.4529 61.7689 4.4529C61.6489 4.46455 61.5529 4.53451 61.493 4.63945C61.469 4.6861 61.469 4.72107 61.457 4.76771C61.409 5.14083 61.349 5.51395 61.3011 5.88707C61.2771 6.09695 61.2651 6.30682 61.2651 6.5167C61.2531 6.56334 61.2651 6.62164 61.2891 6.66829C61.3131 6.76156 61.3851 6.81987 61.481 6.83152C61.6009 6.84319 61.6849 6.8082 61.7209 6.71492C61.7568 6.64497 61.7689 6.58667 61.7809 6.52837C61.8289 6.31849 61.8648 6.12027 61.9008 5.92205C61.9248 5.80545 61.9367 5.71217 61.9728 5.5839C61.9967 5.63055 62.0207 5.66553 62.0447 5.7005C62.1526 5.84043 62.2606 5.98035 62.3925 6.09695C62.5244 6.19022 62.6324 6.17857 62.7403 6.07362C62.7643 6.0503 62.7763 6.03865 62.8003 6.01532C62.9083 5.85209 63.0402 5.68885 63.1481 5.5256C63.1721 5.50229 63.1841 5.47897 63.2081 5.45565Z" fill="black"/>
<path d="M35.5729 5.14563C35.4895 5.36722 35.4736 5.52687 35.5121 5.65956C35.5546 5.83999 35.6649 5.89907 35.8147 5.85318C37.2234 5.51451 40.3125 6.47578 41.4562 6.7437C41.7259 6.79996 41.9453 6.46146 41.7613 6.15797C41.4927 5.86406 38.405 4.60572 37.2268 4.53711C36.765 4.51174 35.9394 4.39661 35.5729 5.14563Z" fill="black"/>
<path d="M47.6471 1.0742C47.7972 1.15845 47.8812 1.23881 47.9226 1.3286C47.9843 1.44639 47.9517 1.52788 47.8481 1.56946C46.9169 2.01129 45.6777 3.91349 45.1775 4.56953C45.0563 4.72045 44.7766 4.63275 44.7344 4.38457C44.7431 4.10395 45.8415 2.03965 46.4545 1.4774C46.6954 1.25789 47.0934 0.827165 47.6471 1.0742Z" fill="black"/>
<path d="M40.2306 0.136178C40.411 0.00401716 40.5984 -0.042296 40.6942 0.043592C42.0992 1.21173 42.8442 3.06157 43.3056 4.75506C43.3229 4.79452 43.324 4.85114 43.3101 4.9102C43.3044 4.96068 43.2664 5.01401 43.2062 5.05527C43.1418 5.10083 43.0864 5.1147 43.0603 5.07545C42.4446 4.2612 38.9276 1.09311 40.2306 0.136178Z" fill="black"/>
<path d="M10.4786 20.3922C10.8154 20.1485 11.1814 19.9456 11.5688 19.7881C11.9741 19.6755 12.4061 19.6941 12.7995 19.8414C13.1929 19.9886 13.5263 20.2564 13.7492 20.6042C13.9486 20.9511 14.0266 21.3516 13.9716 21.7455C13.9165 22.1392 13.7314 22.5049 13.4439 22.7876C13.2211 23.0166 12.9681 23.2162 12.6917 23.3811C11.4598 24.1548 10.217 24.8861 8.97414 25.6598C8.71984 25.8535 8.45006 26.0272 8.16739 26.1792C7.73743 26.3876 7.24605 26.4435 6.77822 26.337C6.3104 26.2306 5.89555 25.9686 5.60541 25.5963C5.38852 25.3326 5.20547 25.0444 5.06031 24.7377C3.88289 22.3318 2.66187 19.9365 1.52805 17.4881C1.00475 16.4283 0.579578 15.2094 0.165301 14.0329C-0.0139343 13.6911 -0.0489349 13.2948 0.0677519 12.9283C0.184439 12.5617 0.443607 12.2539 0.790127 12.0703C1.13665 11.8866 1.54318 11.8417 1.92326 11.945C2.30335 12.0483 2.62701 12.2916 2.82539 12.6233C3.43517 13.4111 3.97496 14.2479 4.43889 15.1246C5.61631 17.2444 6.73923 19.3641 7.87303 21.4203C7.93905 21.5339 8.01185 21.6436 8.09107 21.7488C8.94446 21.4 9.74711 20.9439 10.4786 20.3922Z" fill="black"/>
<path d="M22.6529 19.6495C19.9601 22.7125 15.4467 21.9387 13.1791 17.996C11.5655 15.1979 11.2821 10.5768 14.7926 7.66217C15.5422 7.05196 16.4386 6.63628 17.3981 6.4539C18.5746 6.28993 19.7744 6.49171 20.8258 7.03042C21.8772 7.56913 22.7266 8.41717 23.2526 9.45338C25.1713 12.845 24.8987 17.1693 22.6529 19.6495ZM21.5627 12.5058C21.2766 11.6724 20.7027 10.9608 19.9383 10.492C19.5057 10.1923 18.9801 10.0466 18.45 10.0794C17.9198 10.1122 17.4175 10.3216 17.0275 10.6722C15.4685 12.0183 15.1414 15.2086 16.2752 17.1057C16.4198 17.4151 16.632 17.69 16.8972 17.9113C17.1624 18.1326 17.4742 18.2948 17.8107 18.3867C18.1471 18.4786 18.5001 18.4978 18.8451 18.4432C19.19 18.3885 19.5185 18.2612 19.8075 18.0702C20.6526 17.4332 21.2726 16.5561 21.5813 15.5608C21.89 14.5655 21.8721 13.5014 21.5301 12.5165L21.5627 12.5058Z" fill="black"/>
<path d="M33.6425 13.8395C33.3669 13.8971 33.0821 13.9006 32.805 13.8496C32.5279 13.7986 32.2641 13.6943 32.0291 13.5428C31.8235 13.4284 31.6465 13.2712 31.5108 13.0824C31.3752 12.8936 31.2843 12.6779 31.2447 12.4508C31.2051 12.2238 31.2178 11.9911 31.2817 11.7694C31.3457 11.5477 31.4595 11.3425 31.6148 11.1686C31.8855 10.8191 32.2696 10.5689 32.705 10.4585C33.8418 10.1378 35.012 9.94221 36.1937 9.87557C36.4533 9.84621 36.7164 9.86757 36.9673 9.93839C37.2184 10.0093 37.4523 10.1281 37.6554 10.2881C37.8585 10.448 38.0267 10.6458 38.1502 10.8698C38.2735 11.0938 38.3496 11.3396 38.3741 11.5926C38.7147 12.8353 38.752 14.1383 38.483 15.3976C37.5019 19.4675 34.1223 20.8665 30.3283 19.5628C29.2634 19.2143 28.3296 18.5648 27.6465 17.6975C26.7353 16.6529 26.0893 15.415 25.7604 14.0833C25.494 12.8974 25.5231 11.6668 25.8456 10.4942C26.168 9.32157 26.7742 8.24089 27.6137 7.34244C28.4104 6.36592 29.4445 5.5974 30.6227 5.10608C31.3672 4.70713 32.2385 4.59369 33.0648 4.78812C33.2522 4.83856 33.4224 4.93683 33.5576 5.07275C33.6928 5.20867 33.7882 5.37728 33.8338 5.56111C33.8794 5.74493 33.8736 5.93726 33.817 6.11817C33.7603 6.29907 33.655 6.46196 33.5118 6.58992C33.2395 6.82951 32.9437 7.04251 32.6287 7.22585C31.6595 7.82591 30.816 8.59914 30.143 9.50457C29.7019 10.0905 29.3981 10.7633 29.2531 11.4756C29.108 12.1878 29.1252 12.9224 29.3036 13.6276C29.5508 14.589 30.0995 15.452 30.8734 16.097C33.2719 18.2168 36.3899 16.1712 35.8448 13.2778C35.049 13.4686 34.3512 13.6699 33.6425 13.8395Z" fill="black"/>
<path d="M48.2946 19.822C44.7515 21.9418 40.7177 19.822 39.8346 15.3705C39.1914 12.1909 40.4124 7.73937 44.6861 6.04356C45.5954 5.69052 46.5816 5.56656 47.5533 5.6832C48.7207 5.89097 49.7917 6.44973 50.6151 7.2807C51.4385 8.11166 51.973 9.1729 52.143 10.3149C52.8625 14.0986 51.2273 18.1368 48.2946 19.822ZM49.5266 12.689C49.5255 11.8085 49.2051 10.9565 48.6217 10.2831C48.3099 9.86653 47.859 9.56808 47.3461 9.43853C46.8331 9.30908 46.2899 9.35653 45.8089 9.57299C43.8902 10.3784 42.5383 13.3037 43.029 15.4554C43.0664 15.793 43.1793 16.1186 43.3596 16.4094C43.54 16.7003 43.7836 16.9493 44.0733 17.1391C44.363 17.3288 44.6919 17.4548 45.0368 17.5082C45.3819 17.5614 45.7347 17.5409 46.0706 17.4479C47.0848 17.1034 47.963 16.4597 48.5825 15.6065C49.2021 14.7534 49.5322 13.7334 49.5266 12.689Z" fill="black"/>
<path d="M55.7255 20.7101C55.672 21.098 55.4623 21.4494 55.1423 21.6869C54.8223 21.9244 54.4184 22.0286 54.0194 21.9766C53.6204 21.9246 53.2589 21.7206 53.0146 21.4096C52.7703 21.0986 52.6631 20.7058 52.7166 20.3179C52.7701 19.93 52.9799 19.5786 53.2998 19.3411C53.6198 19.1036 54.0237 18.9994 54.4227 19.0514C54.8217 19.1034 55.1832 19.3073 55.4275 19.6184C55.6718 19.9295 55.7791 20.3222 55.7255 20.7101ZM54.777 6.41225C54.9844 6.10439 55.2886 5.86994 55.6442 5.74388C55.9998 5.61782 56.3878 5.60689 56.7503 5.71273C57.1189 5.80238 57.4445 6.01239 57.6728 6.3076C57.901 6.60282 58.0179 6.9653 58.0041 7.33435C57.956 7.92632 57.8649 8.51426 57.7315 9.09373C57.3718 11.0546 57.0229 13.0153 56.6413 14.9549C56.4669 15.7286 56.238 16.4706 55.9872 17.2548C55.8999 17.5 55.7542 17.7216 55.562 17.9014C55.4425 18.0366 55.2899 18.1404 55.1182 18.203C54.9465 18.2657 54.7614 18.2853 54.5799 18.2599C54.3984 18.2346 54.2263 18.1651 54.0798 18.058C53.9332 17.9508 53.8168 17.8095 53.7414 17.647C53.6118 17.3556 53.5414 17.0424 53.5342 16.7249C53.5342 15.4106 53.5342 14.0858 53.6215 12.7609C53.7697 10.8702 54.0611 8.99262 54.4936 7.14357C54.5445 6.89584 54.6404 6.65894 54.777 6.44405V6.41225Z" fill="black"/>
<path fill-rule="evenodd" clip-rule="evenodd" d="M5.87173 29.2272C5.74301 29.5066 5.70771 29.818 5.77061 30.1178C5.81246 30.5128 5.90437 30.9015 6.04426 31.2748C6.2189 31.7318 6.41433 32.1838 6.6553 32.7409C6.71072 32.8691 6.76863 33.0029 6.82923 33.1438C7.15418 33.8985 7.56192 34.863 8.10578 36.2589C8.25972 36.6555 8.39641 37.0553 8.53407 37.4578C8.58967 37.6205 8.64548 37.7837 8.70261 37.9472C8.90737 38.5287 9.2597 39.051 9.72672 39.465C9.92503 39.6926 10.1881 39.8584 10.483 39.9413C10.7837 40.0258 11.1035 40.0205 11.401 39.9259C11.6986 39.8313 11.9599 39.6518 12.151 39.4108C12.3385 39.1746 12.4499 38.8898 12.4716 38.5924C12.5932 38.0129 12.5517 37.4121 12.3513 36.8535C12.0332 35.9259 11.6709 34.997 11.253 34.0885L11.2511 34.0845C10.5637 32.663 9.86505 31.2514 9.13329 29.8392L9.12781 29.8293C8.9136 29.4614 8.63521 29.1325 8.30515 28.8574C8.09088 28.6118 7.79532 28.4462 7.46892 28.3891C7.13556 28.3308 6.79175 28.3896 6.49887 28.5549C6.2218 28.7088 6.00217 28.9441 5.87173 29.2272Z" fill="black"/>
<path fill-rule="evenodd" clip-rule="evenodd" d="M16.3708 25.7299C15.2931 25.4585 14.1675 25.419 13.0725 25.614C12.2245 25.6952 11.3904 25.8854 10.8112 26.2621C10.5166 26.4539 10.2784 26.7 10.1459 27.013C10.0127 27.3276 9.9957 27.6874 10.1049 28.0883C10.3042 28.8227 10.563 29.5367 10.8209 30.2484L10.8627 30.3637L10.8637 30.3662C11.6403 32.4339 12.4243 34.4945 13.2155 36.548C13.3077 36.8717 13.4382 37.1839 13.6042 37.4783L13.6073 37.4838C13.8267 37.8496 14.108 38.1768 14.4394 38.4516C14.6052 38.6027 14.8101 38.7072 15.0324 38.754C15.2569 38.801 15.4903 38.7874 15.7072 38.7143C15.9243 38.6413 16.1165 38.5118 16.263 38.3398C16.407 38.1706 16.5014 37.9668 16.536 37.7499C16.679 37.1606 16.6332 36.5429 16.4047 35.9796C16.3333 35.79 16.2774 35.5963 16.2184 35.3924C16.1988 35.3244 16.1788 35.2552 16.1578 35.1848C17.9687 34.4966 19.8956 33.5712 20.5732 31.4185C20.8385 30.6746 20.8606 29.869 20.6364 29.1123C20.4121 28.3548 19.9517 27.6833 19.3189 27.1904C18.4575 26.5004 17.4513 26.0019 16.3708 25.7299ZM13.3834 28.3703C13.4191 28.3603 13.455 28.351 13.491 28.3424C14.67 28.1622 15.8762 28.4023 16.8876 29.0183C17.3333 29.3197 17.5159 29.6545 17.5472 29.9767C17.5796 30.3084 17.4555 30.6679 17.2063 31.0134C16.7354 31.6661 15.8759 32.1886 15.0996 32.286C14.5337 31.0189 13.9589 29.7005 13.3834 28.3703Z" fill="black"/>
<path d="M23.5567 23.4071C24.8402 22.8308 26.43 22.7312 27.6741 23.1364C27.9874 23.2251 28.2592 23.4171 28.4431 23.6793C28.6258 23.94 28.7101 24.2541 28.6819 24.5681C28.6801 24.7719 28.6286 24.9724 28.5318 25.1533C28.4332 25.3375 28.2905 25.4959 28.1157 25.6151C27.9409 25.7343 27.7391 25.811 27.5274 25.8383C27.3157 25.8658 27.1004 25.8432 26.8995 25.7726L26.8842 25.7672L26.8699 25.7599C26.7671 25.7076 26.6579 25.6682 26.545 25.6426L26.5379 25.6411C25.6627 25.4151 24.8372 25.7895 24.5357 26.2496C24.3919 26.469 24.3741 26.6904 24.4938 26.8919C24.6221 27.1076 24.9367 27.3497 25.5733 27.5222C25.7484 27.569 25.9279 27.6141 26.1099 27.6599C26.6133 27.7866 27.1365 27.9182 27.6423 28.1007L27.6443 28.1014C29.9781 28.9647 30.8471 30.7526 30.5496 32.4342C30.2553 34.0972 28.8267 35.6107 26.6784 35.9677C25.8967 36.1361 25.0832 36.1033 24.3184 35.8725C23.5517 35.641 22.8605 35.2185 22.3137 34.6469L22.2994 34.632C22.1268 34.4166 22.0107 34.1636 21.9592 33.8951C21.9119 33.6529 21.9368 33.4025 22.031 33.1735C22.1246 32.9459 22.283 32.7489 22.4873 32.6053C22.7032 32.4426 22.9634 32.345 23.2358 32.3246C23.5072 32.3043 23.7789 32.3617 24.0172 32.4895C24.2553 32.6013 24.4767 32.744 24.6755 32.9136L24.6792 32.9167C25.0309 33.2293 25.4563 33.3108 25.8642 33.2353C26.2781 33.1588 26.6674 32.9207 26.9177 32.6048C27.1664 32.2909 27.2662 31.918 27.1477 31.556C27.0285 31.1913 26.67 30.7828 25.8823 30.4412C25.6765 30.3562 25.463 30.2877 25.2409 30.221C25.181 30.203 25.1201 30.1851 25.0585 30.1669C24.8943 30.1184 24.7253 30.0685 24.5597 30.0135C24.4455 29.9757 24.3324 29.9399 24.2203 29.9043C23.9139 29.8073 23.6152 29.7128 23.3277 29.586C22.7021 29.3789 22.1616 28.9812 21.7866 28.4519C21.4101 27.9204 21.2207 27.2849 21.2465 26.6401C21.2485 25.069 22.2663 23.9865 23.5567 23.4071Z" fill="black"/>
<path d="M39.829 23.2428C39.5801 23.1246 39.3049 23.0685 39.0282 23.0795C38.7515 23.0906 38.4819 23.1684 38.244 23.3061C38.0074 23.4428 37.8094 23.6343 37.6675 23.8635C37.5374 24.0565 37.4473 24.2723 37.4024 24.4989C37.3576 24.7254 37.3587 24.9581 37.4056 25.184C37.4519 25.4744 37.5033 25.7568 37.554 26.0352C37.6381 26.496 37.7198 26.9465 37.7737 27.4058L37.7758 27.4174C37.8985 28.1377 37.9628 28.8661 37.9686 29.5961L37.9691 29.6065C38.0111 30.3948 37.7348 31.1678 37.1995 31.7615L37.191 31.772C37.0168 31.989 36.7839 32.1547 36.5183 32.2504C36.2528 32.3461 35.9652 32.3681 35.6875 32.3139C35.4099 32.2598 35.1532 32.1316 34.9462 31.9437C34.7392 31.7558 34.5899 31.5148 34.5154 31.2493C34.3563 30.6896 34.2643 30.1138 34.2408 29.5337L34.5126 25.3279C34.5166 25.273 34.5212 25.2167 34.5258 25.1598C34.5362 25.032 34.5468 24.9019 34.5512 24.7806C34.5576 24.602 34.5521 24.4184 34.5093 24.2446C34.4655 24.0669 34.3822 23.8979 34.2344 23.754C34.0882 23.6116 33.8907 23.5065 33.6422 23.4349C33.1928 23.3085 32.8128 23.3125 32.4962 23.4431C32.1794 23.5738 31.9624 23.8163 31.8088 24.0965C31.6563 24.3743 31.5584 24.7032 31.4844 25.0327C31.4294 25.2771 31.3853 25.5338 31.3433 25.778C31.3288 25.8622 31.3146 25.9448 31.3002 26.0251L31.2999 26.0275C31.0753 27.3671 31.0085 28.7273 31.1006 30.0817C31.1178 30.8136 31.2748 31.536 31.5637 32.2121C31.8897 33.0845 32.48 33.8403 33.2569 34.3798C34.0354 34.9205 34.9644 35.2184 35.9209 35.2341C36.8775 35.2498 37.8163 34.9827 38.6132 34.468C39.4088 33.9541 40.0254 33.2176 40.3815 32.3558C40.8795 31.2581 41.1133 30.0643 41.0651 28.8654C41.0358 27.9901 40.9868 27.1081 40.9381 26.2306C40.9141 25.8001 40.8903 25.3706 40.8689 24.9437C40.8581 24.5156 40.7129 24.1009 40.4527 23.7554C40.2917 23.5369 40.0774 23.3608 39.829 23.2428Z" fill="black"/>
<path d="M48.636 29.8311C48.6108 29.8623 48.5842 29.8945 48.5564 29.9281C48.3539 28.7928 48.1663 27.6579 47.9784 26.5213C47.9111 26.1134 47.8433 25.7039 47.7752 25.2955L47.7675 25.25L47.7427 25.2106C47.6957 25.1365 47.6911 25.0639 47.6911 24.909V24.8911L47.6883 24.8733C47.6374 24.5534 47.4886 24.2557 47.2612 24.0192C47.0344 23.7833 46.74 23.6191 46.416 23.5478C46.0926 23.4703 45.7528 23.4873 45.4393 23.597C45.1266 23.7063 44.8541 23.9029 44.6557 24.162C44.4907 24.3608 44.3555 24.5813 44.2542 24.817C44.0243 25.3246 43.7923 25.8335 43.5597 26.3438L43.5557 26.3526C42.975 27.6265 42.3904 28.909 41.8228 30.2015L41.8211 30.2057C41.4727 31.0438 41.185 31.9269 40.8984 32.8073C40.8412 32.983 40.7839 33.1586 40.7262 33.3338C40.6227 33.6116 40.5775 33.9067 40.593 34.2017C40.5742 34.4658 40.6392 34.7293 40.7795 34.9564C40.9224 35.1883 41.1367 35.3706 41.3918 35.478C41.6623 35.5933 41.9646 35.6177 42.2511 35.5475C42.5369 35.4774 42.7907 35.3171 42.9725 35.0916C43.2048 34.8139 43.4045 34.511 43.5675 34.1901C44.0483 33.2339 44.5078 32.2661 44.9652 31.3024C45.1422 30.9297 45.3142 30.5959 45.5099 30.2323C45.5233 30.2772 45.537 30.3209 45.5512 30.3647C45.7563 31.2424 46.1024 32.0832 46.5768 32.8561C46.6666 33.0198 46.7917 33.1629 46.9435 33.2755C47.0971 33.3895 47.2744 33.4695 47.463 33.5102C47.6516 33.5508 47.8471 33.551 48.0358 33.5107C48.2242 33.4705 48.402 33.3904 48.5557 33.277L48.8599 33.0556L51.2209 31.1223L51.0813 31.9873C50.8896 33.1763 50.6994 34.3553 50.4974 35.5347C50.3652 36.0574 50.3654 36.6034 50.4979 37.126C50.5554 37.4201 50.7016 37.6908 50.9181 37.9037C51.1365 38.1183 51.4161 38.2642 51.7207 38.3223C52.0253 38.3804 52.341 38.3483 52.6265 38.2298C52.9079 38.1132 53.1473 37.9181 53.3146 37.6694C53.7039 37.1999 53.9462 36.6314 54.0127 36.0317C54.1129 35.1848 54.2261 34.3263 54.3394 33.4682C54.4699 32.479 54.6003 31.4901 54.7105 30.5202L54.7109 30.5172C54.8169 29.4554 54.8682 28.3893 54.8647 27.3226C54.8879 26.9855 54.8016 26.6497 54.6176 26.3627C54.433 26.0747 54.1597 25.8508 53.8365 25.7227C53.5005 25.5742 53.1242 25.5344 52.7632 25.6095C52.4045 25.6841 52.0798 25.8679 51.8363 26.1342C51.4008 26.5257 50.9923 26.9447 50.6133 27.3884L50.6108 27.3914C50.1971 27.8926 49.7862 28.4036 49.3779 28.9113C49.1297 29.22 48.8822 29.5279 48.636 29.8311Z" fill="black"/>
</g>
<defs>
<clipPath id="clip0_7027_13989">
<rect width="64" height="40" fill="white"/>
</clipPath>
</defs>
</svg>
